<svg viewBox="0 0 666 1086" xmlns="http://www.w3.org/2000/svg"><path d="M0 303v498c0 47 37 84 84 84h498c23 0 45-11 59-25 15-15 25-34 25-59V303c0-47-37-84-84-84H84c-25 0-44 10-59 25-14 14-25 36-25 59zm90 66c0-32 26-60 58-60 33 0 60 28 60 60 0 33-27 59-60 59-32 0-58-26-58-59zm161 411V475c0-7 7-13 12-13h85c12 0 12 14 12 23 24-24 55-30 87-30 78 0 128 37 128 119v206c0 7-6 13-12 13h-88c-7 0-12-7-12-13V594c0-31-9-48-44-48-44 0-55 29-55 68v166c0 7-7 13-14 13h-87c-5 0-12-7-12-13zm-159 0V475c0-7 7-13 12-13h87c8 0 13 5 13 13v305c0 7-6 13-13 13h-87c-6 0-12-7-12-13z"/></svg>